<svg class="logo" width="64" height="48" viewBox="0 0 64 48" fill="none" xmlns="http://www.w3.org/2000/svg">
  <g id="Bechtel Logo" clip-path="url(#clip0_2422_8151)">
    <g id="Vectors">
      <path id="Vector" class="logo__text" d="M33.9338 21.2051L31.2526 22.1515V16.8756L28.2754 17.9281V31.4826L31.2526 30.4301V24.9995L33.9338 24.0531V29.4837L36.911 28.4312V14.8767L33.9338 15.9293V21.2051Z" fill="#57727F"></path>
      <path id="Vector_2" class="logo__text" d="M38.1826 17.2736L40.7932 16.3494V27.0558L43.7704 26.0033V15.2968L46.381 14.3726V11.5246L38.1826 14.4256V17.2736Z" fill="#57727F"></path>
      <path id="Vector_3" class="logo__text" d="M59.4342 17.6186V6.91211L56.457 7.96462V21.5191L63.4583 19.047V16.199L59.4342 17.6186Z" fill="#57727F"></path>
      <path id="Vector_4" class="logo__text" d="M47.6533 24.6324L54.818 22.0984V19.2504L50.6305 20.7319V17.853L53.8507 16.7164L53.8462 14.1647L50.6305 15.3013V12.8734L54.818 11.3919V8.54395L47.6533 11.0779V24.6324Z" fill="#57727F"></path>
      <path id="Vector_5" class="logo__text" d="M10.1113 37.9038L17.276 35.3742V32.5263L13.0885 34.0033V31.1244L16.3043 29.9878V27.4362L13.0885 28.5727V26.1448L17.276 24.6634V21.8154L10.1113 24.3494V37.9038Z" fill="#57727F"></path>
      <path id="Vector_6" class="logo__text" d="M4.97871 37.4129C4.29846 37.6517 2.97771 38.1205 2.97771 38.1205V35.2416L4.70042 34.6313C5.39834 34.3659 5.94608 34.8789 5.94608 35.7192C5.94608 36.5594 5.65896 37.1741 4.97429 37.4129M2.97329 30.2576C2.97329 30.2576 4.17477 29.8065 4.45306 29.7181C5.21724 29.4572 5.49552 30.2001 5.49552 30.7175C5.49552 31.4472 5.0803 32.0663 4.41772 32.314C4.22336 32.3847 2.96888 32.827 2.96888 32.827V30.262L2.97329 30.2576ZM7.07688 32.6589C7.6732 31.8717 8.09284 30.7706 8.10167 29.5854C8.10167 28.9972 7.94707 27.1973 6.36571 26.7772C5.79147 26.6224 4.96104 26.7109 4.27195 26.9497C4.25428 26.9585 -0.00390625 28.4621 -0.00390625 28.4621V42.0166L5.6457 40.0177C7.15197 39.4516 7.6732 38.6689 7.72179 38.6025C8.33137 37.7579 8.71567 36.6169 8.7245 35.4804C8.73333 34.2465 8.2121 32.9464 7.07688 32.6545" fill="#57727F"></path>
      <path id="Vector_7" class="logo__text" d="M26.7244 26.9453L24.0697 27.8828V29.298C24.0697 30.1249 23.628 30.7573 22.8196 31.0492C22.0687 31.319 21.6402 31.0625 21.6402 30.3195V23.9116C21.6402 23.12 22.1173 22.4831 22.9124 22.2001C23.681 21.9304 24.0653 22.1957 24.0697 22.9873V24.429L26.7244 23.4914V22.0896C26.7156 20.1172 25.6864 19.047 23.9681 19.2239C23.5971 19.2637 23.1818 19.3787 22.749 19.5069C22.0775 19.7148 18.6719 21.0768 18.6719 25.0658V31.0315C18.6807 33.0437 19.8778 34.2244 21.6932 34.0431C22.0643 34.0033 22.4663 33.9104 22.8771 33.7645C25.2579 32.9243 26.7333 30.9121 26.7289 28.5152V26.9409L26.7244 26.9453Z" fill="#57727F"></path>
      <g id="circle" class="logo__circle">
        <path id="Vector_8" d="M30.4618 3.71034C35.9038 3.71034 40.8422 5.85517 44.482 9.34881L48.325 7.99116C43.9343 3.08679 37.5602 0 30.4618 0C17.6342 0 7.161 10.0873 6.52051 22.7706L10.3591 21.4129C11.6268 11.4273 20.1432 3.71034 30.4618 3.71034Z" fill="#FF2800"></path>
        <path id="Vector_9" d="M30.4613 44.2897C24.9707 44.2897 19.9881 42.1006 16.3395 38.5495L12.5098 39.9027C16.9005 44.869 23.3187 48 30.4657 48C43.3419 48 53.846 37.8375 54.4158 25.0879L50.5861 26.4411C49.3802 36.4931 40.8329 44.2852 30.4657 44.2852" fill="#FF2800"></path>
      </g>
    </g>
  </g>
  <defs>
    <clipPath id="clip0_2422_8151">
    <rect width="63.4576" height="48" fill="white"></rect>
    </clipPath>
  </defs>
</svg>