<svg xmlns="http://www.w3.org/2000/svg" viewBox="0 0 2216.17 1228.68"><defs><style>.cls-1{fill:#c4161c;}.cls-2{fill:#fff;}</style></defs><title>petrojetAsset 1</title><g id="Layer_2" data-name="Layer 2"><g id="Layer_1-2" data-name="Layer 1"><path class="cls-1" d="M2.11,336.66c0-.81,0-3.56,0-4.37,0-19.68,4.94-39.44,12.09-58.26,8.59-22.59,17.8-45.59,31-65.63,17.66-26.87,37.28-53.17,60-75.82,22.38-22.36,48.87-40.9,74.93-59.15,17.36-12.16,36.7-21.81,56-30.86a258.51,258.51,0,0,1,47.07-16.75C310.9,18.89,333.74,11.9,367,7.18,402.17,2.19,417.47,0,450.26,0c37.17,0,61.88,11.88,65.59,15.3,3.11,2.88,2.57,6.8,2.58,10.76q.26,240.42,0,480.84c0,18.39-6.3,33.27-20.58,44.84-11.16,9-24.64,8.21-37.57,8.27-55.73.28-111.47,0-167.2,0-5.45,0-10.91.41-16.35.78-8.71.6-13,5.67-13.84,14-.28,2.89-.43,5.81-.43,8.72q.07,309.27.2,618.54c0,14.45-3.4,17.65-18.12,17.64q-112.56-.11-225.12,0c-15.72,0-19.43-3.58-19.43-19C.07,985.5,2.11,765.13,2.11,550.89ZM202.7,735.1a8.27,8.27,0,0,0,0-.86c-1.74-16.09-2.15-32.49-5.85-48.11-2-8.32-8.15-18.2-15.31-22.16-12.46-6.9-15-17-18-29-6.09-24.19-16.7-46.4-35.45-63.63a7.47,7.47,0,0,0-2.63-1.5,8.36,8.36,0,0,0-10.91,6.32,22.27,22.27,0,0,0-.46,4c0,2.62,2.79,5.15,3.28,7.91,2.74,15.57,5.36,31.17,7.44,46.84.26,1.94-2.52,5.09-4.66,6.2-1,.54-4.3-1.91-5.79-3.66-3.27-3.86-5.37-9-9.25-12a15.12,15.12,0,0,0-2.81-1.65,8.35,8.35,0,0,0-11.76,7.36,38.3,38.3,0,0,0,.13,4.91c.89,8.77,4.61,17.68,3.63,26.12a79,79,0,0,1-9.59,28.77c-13.12,23.39-11.57,48.4-9.83,73.43a52.46,52.46,0,0,0,6.39,20.52c8.58,15.9,18.58,31.05,27.2,46.94,6,11.08,12,22.49,15.59,34.49,4,13.46,7.55,16.07,18.15,8.25a65,65,0,0,0,10.26-9.63C184.75,827.84,203.17,785.4,202.7,735.1Zm87.4-374.76c35.24-.68,76.78-31.72,75.62-78.7-1.08-43.48-33.78-76.4-77-76.55-44.27-.16-77.68,40.12-77.62,76.88C211.19,324.4,250.05,360.36,290.1,360.34Z"/><path class="cls-1" d="M312.48,751.65q0-62.83,0-125.67c0-14.89,1.47-16.18,16.05-16.18,58.27,0,116.55-.83,174.82,0,25.46.34,56.92-25.34,58.9-50.46,1.12-14.09,3.93-28.13,4.07-42.22.45-47.34.24-94.7-.22-142-.09-9.48,4-13.36,12.59-14.06,2.89-.23,5.82-.2,8.73-.2h241.5c20.16,0,23.24,1.47,24.78,21.62,4.45,58.45,7.45,116.67-6.49,174.87-7.67,32-16.95,63.3-30.49,92.86-27.86,60.8-67.11,113.55-118.52,157-26.76,22.62-55.7,42.11-87,57.25-27.58,13.36-56.61,23.5-86.69,31.38-57.31,15-114.7,12.52-172.42,6.86-10.71-1-21.12-5.3-31.6-8.34-7.42-2.15-8.24-8.13-8.22-14.8q.15-63.91.05-127.84Z"/><path class="cls-1" d="M566.39,168.29q0-63.33,0-126.65c0-11.73,4.59-14.67,15.74-10.36Q683.69,70.55,753.81,153.83c22,26.13,40.87,54.49,54.68,85.93,8,18.2,16.36,36.26,23.51,54.79,4.57,11.87,1.11,16-12,16q-118.45.13-236.93,0c-14.06,0-16.81-3.57-16.77-17.75C566.47,251.27,566.39,209.78,566.39,168.29Z"/><path class="cls-2" d="M875.76,936.32a7.87,7.87,0,0,1,2.85-.39c46.61.63,93.24.75,139.82,2.27,17,.56,34.42,2.58,50.69,7.28,29.57,8.55,49.88,43.63,46.84,74.79-3,30.55-18.31,50.53-47.65,59.35-9.49,2.85-11.88,8.73-7.1,16.38,9.41,15.06,19.61,29.63,29.8,44.17,10.83,15.46,21.75,30.87,33.2,45.86,5.24,6.86,12.11,12.45,17.76,19,2.13,2.48,4.65,6.73,3.84,9.08s-5.49,4.82-8.55,4.91c-17.47.51-35,.52-52.44.34-17.07-.18-21.88-15.23-29.79-25.91-16.62-22.43-32.57-45.37-48.65-68.2-5.44-7.72-9.61-16.52-15.94-23.36a36.4,36.4,0,0,0-17.71-10.36c-7.57-1.69-12.22,3.76-12.15,11.74.25,27.31.15,54.65,1.4,81.92.33,7.38,4.2,15,7.8,21.73,3.83,7.19,3,11.68-5.27,11.89q-35.49.9-71,0c-8.43-.22-9.28-5.18-5.66-13,3.84-8.3,8.15-17.43,8.24-26.24.67-67.39.55-134.79.09-202.19a57.69,57.69,0,0,0-5.89-24C887.17,947.08,880.9,942.19,875.76,936.32Zm85.29,78h.37c0,16.75,0,33.49,0,50.24,0,6.87,2.45,12.7,10,13.41,24.74,2.34,63.17-2.42,75.67-36.12,5.62-15.17,5.65-30.12,3-45-3.59-20.06-18.44-42-43.69-43.82-8.34-.62-16.6-2-24.92-2.91-14-1.46-20.32,4.23-20.42,18.34C961,983.71,961.05,999,961.05,1014.3Z"/><path class="cls-2" d="M1315.26,1228.18c-4.74,0-9.48.06-14.21,0-11.78-.17-22.79.1-33.77-7.82-11.15-8-25.6-11.31-38.17-17.54-17.47-8.67-29-23.41-39.94-39.25-21.57-31.17-28.24-65.71-25.27-102.42,1.74-21.46,8.63-41.92,21.3-59.63,8.58-12,17.18-24.68,28.34-34,43.54-36.26,93.29-43.3,147.39-29.06,35.3,9.29,62.18,29.75,81.58,59.64,11.47,17.67,19.92,37.49,19.37,59.31-.58,23.2,1.34,47.43-4.77,69.26a128.67,128.67,0,0,1-41.31,64.21c-13.73,11.45-29.07,19.41-45.53,26.79C1352.14,1225.81,1334.67,1230.24,1315.26,1228.18Zm-78.39-153.27c0,12.93-.26,21.68.05,30.41a162.09,162.09,0,0,0,23.41,79.53c15,24.77,53.21,36.79,80.6,23.2,27.07-13.43,40.33-36.76,44.18-62.52,8.09-54.14,13.44-109-10-161.93-9.12-20.55-24.12-33.68-44.39-38.37-39.24-9.09-65.73,12.64-80.28,46.18C1238.45,1019,1233.73,1048.69,1236.87,1074.91Z"/><path class="cls-2" d="M474.63,1020.55c9.35,10.3,9.84,100.1,1,112.32-2.24-4.95-4.75-8.7-5.68-12.8-4.62-20.53-18.59-31.37-37.66-36.82-8.85-2.52-15.08.83-17.11,10.18a55,55,0,0,0-1.39,11.9c.21,24.76.38,49.52,1.05,74.26.55,20.34,5.08,25.73,25.2,26.08,26,.45,53.07,3.49,76.17-12.46,9.88-6.83,18.73-15.77,26.32-25.16,7.46-9.24,12.73-20.26,20.52-33.07,0,7,.64,12.31-.11,17.36-2.5,16.85-6,33.57-8.13,50.46-1.73,13.48-4.21,16.65-17.49,16.66q-91.77,0-183.53-.06a65,65,0,0,1-8.72-.37c-7.72-1.06-9.62-4.29-6-12,3.77-7.93,7.87-16.74,7.95-25.2.58-68.82.25-137.64.19-206.47,0-1.09-.1-2.18-.17-3.27-1.37-21.64-8.43-30.07-31.51-34.59,4.86-.84,7-1.51,9.06-1.51q102.14,0,204.28,0c6.64,0,12.65,1.81,12.87,8.77.63,19.89.21,39.81,0,59.71,0,1.43-1.82,2.85-4.45,6.71-2.35-5.86-4.39-9.68-5.43-13.77-6-23.54-22.33-39.28-46.46-42.46-17.62-2.32-35.43-3.41-53.2-4.22-12.74-.58-18.54,5.81-18.57,18.71q-.09,42,0,84.07c0,10.85,4.39,15,15.52,14.86,18.58-.16,33.39-11.74,39.22-30.44C470.09,1032.47,472.25,1027.13,474.63,1020.55Z"/><path class="cls-2" d="M1699.37,936.91c4.73-.45,6.78-.82,8.83-.82,64.85,0,129.7.29,194.55,0,9.94,0,14.21,4.1,14.51,13.3.6,18.2,1.26,36.4,1.25,54.6,0,3.2-3.18,6.39-4.89,9.59-2-3.06-5.09-5.9-5.71-9.21-4.91-26.3-25.35-49.2-53.49-50.85-16.71-1-33.42-2.51-50.14-2.64-14.18-.1-18.8,5.49-18.79,19.44q0,41-.06,82c0,12.06,3.2,15.47,15.34,16,19.88.89,40.32-17,43.8-38.52.7-4.31.37-8.84,1.51-13,.77-2.77,3.3-5,5.05-7.54,1.7,2.43,4.18,4.64,4.92,7.33.93,3.42.57,7.22.58,10.86,0,32.42.2,64.85-.07,97.26,0,6.43-1.76,12.84-2.71,19.26l-4.47.08c-1.27-4.94-2.87-9.82-3.74-14.83-3.62-20.72-13.08-36.56-34-44.1-16.87-6.08-25.8-.91-26,16.73q-.36,37.71.23,75.42c.27,18.48,7.93,27.56,26.07,28,18.85.45,38.29,1,56.5-3,23.65-5.13,40.91-21,52.34-42.83,1.75-3.35,5.41-5.71,8.18-8.53,1.25,3.89,3.72,7.86,3.52,11.68-.66,12.34-1.82,24.71-3.68,36.93-2.44,16.11-7,19.86-23,19.92-37.89.12-75.78.08-113.67.07-22.95,0-45.91.14-68.86-.31-4.28-.09-8.52-2.66-12.78-4.09,1.77-4,3.61-8,5.3-12.1,1.89-4.56,5.11-9.13,5.22-13.76.73-29.49.88-59,1-88.5.13-36.8-.81-73.63.35-110.39C1723,969.29,1720,950.83,1699.37,936.91Z"/><path class="cls-2" d="M716.59,936.18c36.41,0,72.82.27,109.23-.17,10.35-.13,15.32,5.23,16.09,13.93,1.07,12.26.71,24.68.22,37-.12,3-3.14,5.92-4.83,8.87-2.3-2.38-5.81-4.36-6.71-7.18-11.78-36.86-41.25-38.72-69-37.52-9.65.42-12.44,8.51-12.39,17.55.18,29.13.17,58.26.19,87.38,0,38.6-.15,77.19.17,115.78.1,12.25-.17,24.67,8.59,35.24,4.61,5.56,2.17,11.33-5.15,11.49q-37.08.79-74.2,0c-7.31-.17-8.36-4.57-4.87-11.48,3.78-7.46,7.9-15.86,8-23.9.75-72.08.71-144.17.73-216.26,0-11-5.38-16.71-16.07-16.17-19.88,1-40.84.18-54.22,19.18-4.12,5.84-6.38,13-9.91,19.24-1.46,2.6-4,4.58-6.09,6.84-1.85-2.78-5.19-5.49-5.3-8.34-.51-12.7-.54-25.46.14-38.15.51-9.57,6.22-13.58,16.14-13.48C643.77,936.39,680.18,936.17,716.59,936.18Z"/><path class="cls-2" d="M1961.51,999.31c0-3.7-.08-7.4,0-11.1.24-9.45,1-18.92.75-28.35-.62-19.64,3-23.58,23-23.58q75.95,0,151.89,0c21.86,0,43.72-.49,65.55.22,4.24.13,11.72,4.5,11.95,7.37,1.45,18.07,1.39,36.27,1.45,54.43,0,2-2.35,4-4.82,8-2.43-4.61-4.58-7.41-5.46-10.55-9.28-33.3-36.88-50.8-70.66-44.49-9.35,1.75-14.9,6.87-14.88,17.11.14,69.2.09,138.41.33,207.62,0,10.92,1.33,21.4,9.63,30.33,6,6.47,2.86,12.71-6.38,12.9-23.66.49-47.34.28-71-.09-2.71,0-6.84-2.37-7.64-4.59s.88-6.63,2.92-8.43c7-6.16,8.63-13.73,8.62-22.54,0-71.76.17-143.52.18-215.27,0-13.12-4.73-18-18-17.35-19.55.87-40,.19-53.53,18.45-5.79,7.84-10.63,16.38-16,24.54-1.45,2.2-3.25,4.16-4.89,6.24Z"/><path class="cls-1" d="M1546.78,936.48h117c-19.77,9.7-23.94,26-24.06,43.93-.28,43.68.49,87.38-.46,131-.49,22.45-2.12,45.16-6.32,67.17-3.35,17.59-18.17,28.05-33.14,36.9-4.93,2.92-9.7,6.12-14.76,8.8-3,1.61-6.39,3.27-9.7,3.51-8,.58-16,.13-24,.44-33.8,1.32-55.94-17.31-73-43.52-8.32-12.76-4.28-32,6.94-40.64,14.23-11,27.9-10.25,41.31,2.15,6.93,6.41,8.78,19.5,3.92,28.25a48.6,48.6,0,0,1-3.1,4.5c-5.51,7.76-10.1,15.86-2.46,24.65,8.13,9.36,21.92,11.77,31.85,6.28,11.59-6.42,17-16.09,16.84-29.48-.2-24.75.39-49.5.35-74.25-.08-44-.46-88.08-.55-132.12C1573.33,953.51,1565.63,942.88,1546.78,936.48Z"/></g></g></svg>