<svg id="Layer_1" data-name="Layer 1" xmlns="http://www.w3.org/2000/svg" viewBox="0 0 337.7 138.83"><defs><style>.cls-1{fill:#004b85;}.cls-2{fill:#231f20;}.cls-3{fill:#fff;}</style></defs><path class="cls-1" d="M110.8,11.48S128.14.69,168.44,0c31.8-.53,58.05,11.45,58.05,11.45a213.36,213.36,0,0,1,3.67,35.12c.45,17-3.67,33.76-3.67,33.76s-21.74,13.8-58.05,13.8c-30.49,0-57.64-13.81-57.64-13.81s-3.24-20.53-3.29-33.75c-.05-13.75,3.29-35.11,3.29-35.11"/><polygon class="cls-2" points="0 111.59 0 116.91 4.89 116.91 4.89 138.19 11.14 138.19 11.14 116.91 16.17 116.91 16.17 111.59 0 111.59"/><polygon class="cls-2" points="18.58 111.59 18.58 138.19 33.3 138.19 33.3 132.87 24.82 132.87 24.82 127.12 32.63 127.12 32.63 121.8 24.82 121.8 24.82 116.91 32.87 116.91 32.87 111.59 18.58 111.59"/><polygon class="cls-2" points="47.16 111.59 42.55 122.23 42.48 122.23 42.48 111.59 36.24 111.59 36.24 138.19 42.48 138.19 42.48 131.63 43.87 128.93 47.3 138.19 53.9 138.19 47.87 123.33 53.55 111.59 47.16 111.59"/><polygon class="cls-2" points="56.14 111.59 56.14 138.19 62.38 138.19 62.38 126.95 70.14 126.95 70.14 121.63 62.38 121.63 62.38 116.91 70.82 116.91 70.82 111.59 56.14 111.59"/><polygon class="cls-2" points="73.76 111.59 73.76 138.19 88.48 138.19 88.48 132.87 80 132.87 80 127.12 87.8 127.12 87.8 121.8 80 121.8 80 116.91 88.05 116.91 88.05 111.59 73.76 111.59"/><polygon class="cls-2" points="102.13 111.59 102.73 126.45 102.63 126.45 97.81 111.59 91.39 111.59 91.39 138.19 97.31 138.19 96.74 123.36 96.81 123.3 101.67 138.19 108.05 138.19 108.05 111.59 102.13 111.59"/><path class="cls-2" d="M136.71,120.88h-6.25v-1.7c0-2.27-.66-3.42-2-3.44a2.34,2.34,0,0,0-1.92.67,3.58,3.58,0,0,0-.49,2.1l0,13.15c0,1.59.75,2.38,2.24,2.38s2.3-1.28,2.3-3.83V127.8h6.24v3.26a7.36,7.36,0,0,1-2.09,5.6c-1.54,1.45-3.84,2.16-6.92,2.16q-8,0-8-8.47V119.43q0-8.48,8.36-8.48,8.52,0,8.52,7.7Z"/><path class="cls-2" d="M150.25,130.24V119.32c0-2.39-.73-3.58-2.2-3.58s-2.23,1.19-2.23,3.58v10.92q0,3.8,2.27,3.8c1.44,0,2.16-1.27,2.16-3.8m6.24-11.34v10.81q0,4.68-1.84,6.81c-1.33,1.54-3.51,2.31-6.56,2.31s-5.28-.77-6.63-2.31-1.88-3.71-1.88-6.81V118.9a7.65,7.65,0,0,1,2.2-5.89,8.9,8.9,0,0,1,6.31-2.06,8.71,8.71,0,0,1,6.24,2.06,7.74,7.74,0,0,1,2.16,5.89"/><polygon class="cls-2" points="170.15 111.59 170.75 126.45 170.64 126.45 165.82 111.59 159.4 111.59 159.4 138.19 165.32 138.19 164.76 123.36 164.83 123.3 169.69 138.19 176.07 138.19 176.07 111.59 170.15 111.59"/><path class="cls-2" d="M178.16,129.29h5.78v1.88c0,1.91.83,2.87,2.48,2.87a1.76,1.76,0,0,0,1.56-.78,3.23,3.23,0,0,0,.54-1.88,3.34,3.34,0,0,0-1.14-2.52A16.43,16.43,0,0,0,185,127.3a21.21,21.21,0,0,1-4.68-3.4,8,8,0,0,1-1.85-5.39,7.26,7.26,0,0,1,2.13-5.64,8,8,0,0,1,5.71-1.92,7.65,7.65,0,0,1,6.1,2.45,8.29,8.29,0,0,1,1.81,6.17h-5.74a10.31,10.31,0,0,0-.29-2.45,1.87,1.87,0,0,0-1.77-1.38,1.79,1.79,0,0,0-2.16,1.77c-.15,1.26.48,2.34,1.87,3.26s2.77,1.68,4.12,2.56a9,9,0,0,1,2.94,2.69,9.67,9.67,0,0,1,1.07,4.86,7.87,7.87,0,0,1-2.1,5.89,8,8,0,0,1-5.92,2,8.76,8.76,0,0,1-6.21-2,6.15,6.15,0,0,1-1.91-4.68Z"/><polygon class="cls-2" points="196.1 111.59 196.1 116.91 201 116.91 201 138.19 207.24 138.19 207.24 116.91 212.27 116.91 212.27 111.59 196.1 111.59"/><path class="cls-2" d="M220.79,116.38v6.52h2.12c1.49,0,2.24-1.1,2.24-3.29,0-1.47-.35-2.42-1-2.84a7.19,7.19,0,0,0-3.33-.39m0,11.31v10.5h-6.25v-26.6h9.12q3.9,0,5.78,1.74t1.88,5.6a8.42,8.42,0,0,1-.67,3.66A5.16,5.16,0,0,1,228,125v.07a3.55,3.55,0,0,1,3.09,3.44q.1,3.33.56,8.4a2.62,2.62,0,0,0,.6.92v.36h-6.8a11,11,0,0,1-.39-3.41v-2.2a17.33,17.33,0,0,0-.25-3.08c-.33-1.21-1-1.81-2-1.81Z"/><path class="cls-2" d="M234.26,130.85V111.59h6.24v20.07c0,1.59.72,2.38,2.17,2.38s2.12-.85,2.12-2.56V111.59H251v19.26q0,8-8.4,8t-8.37-8"/><path class="cls-2" d="M270.75,120.88h-6.24v-1.7c0-2.27-.66-3.42-2-3.44a2.3,2.3,0,0,0-1.91.67,3.57,3.57,0,0,0-.5,2.1l0,13.15c0,1.59.74,2.38,2.23,2.38s2.31-1.28,2.31-3.83V127.8h6.24v3.26a7.33,7.33,0,0,1-2.1,5.6c-1.53,1.45-3.84,2.16-6.91,2.16q-8,0-8-8.47V119.43q0-8.48,8.37-8.48t8.51,7.7Z"/><polygon class="cls-2" points="272.98 111.59 272.98 116.91 277.88 116.91 277.88 138.19 284.12 138.19 284.12 116.91 289.15 116.91 289.15 111.59 272.98 111.59"/><rect class="cls-2" x="291.74" y="111.59" width="6.24" height="26.6"/><path class="cls-2" d="M311.89,130.24V119.32c0-2.39-.74-3.58-2.2-3.58s-2.24,1.19-2.24,3.58v10.92q0,3.8,2.27,3.8c1.45,0,2.17-1.27,2.17-3.8m6.24-11.34v10.81q0,4.68-1.85,6.81-2,2.31-6.56,2.31t-6.63-2.31q-1.87-2.16-1.88-6.81V118.9a7.65,7.65,0,0,1,2.2-5.89,8.91,8.91,0,0,1,6.31-2.06A8.75,8.75,0,0,1,316,113a7.74,7.74,0,0,1,2.16,5.89"/><polygon class="cls-2" points="331.78 111.59 332.38 126.45 332.28 126.45 327.45 111.59 321.04 111.59 321.04 138.19 326.96 138.19 326.39 123.36 326.46 123.3 331.32 138.19 337.7 138.19 337.7 111.59 331.78 111.59"/><polygon class="cls-3" points="113.51 45.9 118.93 45.9 118.93 59.46 124.96 59.46 124.96 45.9 130.38 45.9 130.38 41.07 113.51 41.07 113.51 45.9"/><polygon class="cls-3" points="148.1 59.46 148.1 55.17 138.78 55.17 138.78 52.28 146.36 52.28 146.36 47.99 138.78 47.99 138.78 45.36 147.74 45.36 147.74 41.07 132.74 41.07 132.74 59.46 148.1 59.46"/><polygon class="cls-3" points="150.8 59.46 156.83 59.46 156.83 53.64 158.26 52.13 162.68 59.46 169.91 59.46 162.48 47.99 169.19 41.07 162.12 41.07 156.83 47.02 156.83 41.07 150.8 41.07 150.8 59.46"/><polygon class="cls-3" points="177.71 59.46 177.71 53 184.3 53 184.3 48.71 177.71 48.71 177.71 45.36 185.99 45.36 185.99 41.07 171.68 41.07 171.68 59.46 177.71 59.46"/><polygon class="cls-3" points="203.76 59.46 203.76 55.17 194.44 55.17 194.44 52.28 202.03 52.28 202.03 47.99 194.44 47.99 194.44 45.36 203.4 45.36 203.4 41.07 188.41 41.07 188.41 59.46 203.76 59.46"/><polygon class="cls-3" points="211.96 41.07 206.31 41.07 206.31 59.46 212.09 59.46 212.09 53.64 211.85 49.45 218.42 59.46 224.07 59.46 224.07 41.07 218.29 41.07 218.29 46.92 218.52 51.11 211.96 41.07"/><path class="cls-3" d="M137.75,9.76h62.08V36H198s-.22-11.94-6.35-17c-7.14-5.93-13.89-5.54-13.89-5.54V36H160.16V13.44a19.06,19.06,0,0,0-14,5.82A23.39,23.39,0,0,0,139.91,36h-2.16Z"/><path class="cls-3" d="M160.21,64.42h17.55s-.36,7.49,2.56,11.58c5.36,7.53,11.33,6.37,11.33,6.37v1.88H146V82.32s5.5,1.24,10.93-5.64c3.56-4.52,3.24-12.26,3.24-12.26"/></svg>