<svg id="Layer_1" data-name="Layer 1" xmlns="http://www.w3.org/2000/svg" viewBox="0 0 266.04 207.19"><defs><style>.cls-1{fill:#58595b;}</style></defs><title>shape</title><polyline class="cls-1" points="132 55.4 132 55.4 127.92 70.6 112.34 75.28 127.66 80.39 131.49 95.36 134.98 80.72 151.15 75.87 134.89 70.43"/><polyline class="cls-1" points="132 0 132 0 127.92 15.19 112.34 19.87 127.66 24.98 131.49 39.96 134.98 25.32 151.15 20.47 134.89 15.02"/><polyline class="cls-1" points="75.33 55.4 75.33 55.4 71.23 70.6 55.66 75.28 70.98 80.39 74.81 95.36 78.3 80.72 94.47 75.87 78.21 70.43"/><polyline class="cls-1" points="75.33 0 75.33 0 71.23 15.19 55.66 19.87 70.98 24.98 74.81 39.96 78.3 25.32 94.47 20.47 78.21 15.02"/><polyline class="cls-1" points="132 167.23 132 167.23 127.92 182.43 112.34 187.11 127.66 192.22 131.49 207.19 134.98 192.56 151.15 187.7 134.89 182.26"/><polyline class="cls-1" points="132 111.83 132 111.83 127.92 127.02 112.34 131.7 127.66 136.81 131.49 151.79 134.98 137.15 151.15 132.3 134.89 126.85"/><polyline class="cls-1" points="75.33 167.23 75.33 167.23 71.23 182.43 55.66 187.11 70.98 192.22 74.81 207.19 78.3 192.56 94.47 187.7 78.21 182.26"/><polyline class="cls-1" points="75.33 111.83 75.33 111.83 71.23 127.02 55.66 131.7 70.98 136.81 74.81 151.79 78.3 137.15 94.47 132.3 78.21 126.85"/><polyline class="cls-1" points="19.66 55.4 19.66 55.4 15.57 70.6 0 75.28 15.32 80.39 19.15 95.36 22.64 80.72 38.81 75.87 22.55 70.43"/><polyline class="cls-1" points="19.66 0 19.66 0 15.57 15.19 0 19.87 15.32 24.98 19.15 39.96 22.64 25.32 38.81 20.47 22.55 15.02"/><polyline class="cls-1" points="19.66 167.23 19.66 167.23 15.57 182.43 0 187.11 15.32 192.22 19.15 207.19 22.64 192.56 38.81 187.7 22.55 182.26"/><polyline class="cls-1" points="19.66 111.83 19.66 111.83 15.57 127.02 0 131.7 15.32 136.81 19.15 151.79 22.64 137.15 38.81 132.3 22.55 126.85"/><polyline class="cls-1" points="246.9 55.4 246.9 55.4 242.81 70.6 227.23 75.28 242.55 80.39 246.38 95.36 249.87 80.72 266.04 75.87 249.79 70.43"/><polyline class="cls-1" points="246.9 0 246.9 0 242.81 15.19 227.23 19.87 242.55 24.98 246.38 39.96 249.87 25.32 266.04 20.47 249.79 15.02"/><polyline class="cls-1" points="190.22 55.4 190.22 55.4 186.13 70.6 170.55 75.28 185.87 80.39 189.7 95.36 193.19 80.72 209.36 75.87 193.11 70.43"/><polyline class="cls-1" points="190.22 0 190.22 0 186.13 15.19 170.55 19.87 185.87 24.98 189.7 39.96 193.19 25.32 209.36 20.47 193.11 15.02"/><polyline class="cls-1" points="246.9 167.23 246.9 167.23 242.81 182.43 227.23 187.11 242.55 192.22 246.38 207.19 249.87 192.56 266.04 187.7 249.79 182.26"/><polyline class="cls-1" points="246.9 111.83 246.9 111.83 242.81 127.02 227.23 131.7 242.55 136.81 246.38 151.79 249.87 137.15 266.04 132.3 249.79 126.85"/><polyline class="cls-1" points="190.22 167.23 190.22 167.23 186.13 182.43 170.55 187.11 185.87 192.22 189.7 207.19 193.19 192.56 209.36 187.7 193.11 182.26"/><polyline class="cls-1" points="190.22 111.83 190.22 111.83 186.13 127.02 170.55 131.7 185.87 136.81 189.7 151.79 193.19 137.15 209.36 132.3 193.11 126.85"/></svg>